<svg class="path-black" xmlns="http://www.w3.org/2000/svg" xmlns:xlink="http://www.w3.org/1999/xlink" viewBox="0 0 240.87 288.31">
            <defs>
              <clipPath id="a">
                <rect width="240.88" height="288.31" style="fill:none"></rect>
              </clipPath>
            </defs>
            <title>bssp</title>
            <g style="">
              <path d="M194.93,182c-6.81,0-14.67-2.54-23.36-7.56a46.94,46.94,0,0,1-12.29-9.91,34.5,34.5,0,0,1-6.8-11.66,29.42,29.42,0,0,1,.9-21,31.75,31.75,0,0,1,1.66-3.34l.18-.32c.4-.69.54-.93.92-1.52l1-1.54,3.07,1.66,6.63,3.82,3.37,2-1.05,1.73-.93,1.58a18.2,18.2,0,0,0-2,13.9c1.2,4.78,5.23,9.18,12,13.09a41.39,41.39,0,0,0,10.11,4.42,21.92,21.92,0,0,0,5.4.77,13,13,0,0,0,2-.15,10.76,10.76,0,0,0,5.16-2.17,16,16,0,0,0,3.85-4.54,17.29,17.29,0,0,0,2.66-7.67,11.63,11.63,0,0,0-1.56-6.21,30.32,30.32,0,0,0-5.52-6.79c-2.6-2.49-5.66-5.33-9.1-8.45-7.29-6.41-12.33-12.88-15-19.25-2.78-6.68-2.15-13.61,1.87-20.58a23.56,23.56,0,0,1,7-7.58,24.63,24.63,0,0,1,9.88-4,27,27,0,0,1,4.73-.4,35.36,35.36,0,0,1,7.26.8,45.5,45.5,0,0,1,13.3,5.31,57.17,57.17,0,0,1,10.89,8.06,35,35,0,0,1,7.39,9.85,23.64,23.64,0,0,1,2.35,11.53,25.82,25.82,0,0,1-2.23,9.08,27.6,27.6,0,0,1-1.73,3.42c-.48.82-.71,1.22-1,1.63l-1,1.7-3.49-2-5.9-3.42-3.79-2.16,1.11-1.77c.4-.62.82-1.35,1.07-1.77a17.15,17.15,0,0,0,2-5.36,10.68,10.68,0,0,0-.49-5.43,17,17,0,0,0-3.76-5.78,35.05,35.05,0,0,0-8-6.05c-4.68-2.7-8.83-4.07-12.36-4.07a12.83,12.83,0,0,0-1.53.09,11,11,0,0,0-8.48,5.9,11.57,11.57,0,0,0-1.87,6.61,13.56,13.56,0,0,0,2.29,6.26,39.33,39.33,0,0,0,6.11,7.08c2.7,2.56,5.89,5.4,9.47,8.45,7.36,6.47,12.14,12.9,14.19,19.13,2.12,6.45.92,13.65-3.56,21.42a25.48,25.48,0,0,1-18.12,12.72,25.78,25.78,0,0,1-4.79.44"></path>
              <path d="M111.1,133.76c-.82,0-1.67,0-2.51-.08a39.94,39.94,0,0,1-17.38-5.62c-7.59-4.38-12.86-9.34-15.66-14.76a37.26,37.26,0,0,1-3.64-10.92l-5.32,9.25L53.48,104,113.54,0H131L109.64,37a33,33,0,0,1,11.21-2.19c.37,0,.74,0,1.12,0,5.8,0,12.36,2.09,19.49,6.21A40,40,0,0,1,155,53.26a36.53,36.53,0,0,1,5.92,15.66,45.74,45.74,0,0,1-1.36,17.7A76.36,76.36,0,0,1,151.82,105,75.66,75.66,0,0,1,139.76,121a45.67,45.67,0,0,1-14.65,10,36.44,36.44,0,0,1-14,2.78m8.51-86.16a23.7,23.7,0,0,0-8.4,1.58C103.92,51.94,97,58.87,90.74,69.76s-8.84,20.33-7.59,28c1.23,7.54,5.63,13.55,13.09,17.85a27.19,27.19,0,0,0,13.6,4,23.66,23.66,0,0,0,8.4-1.58c7.29-2.76,14.18-9.69,20.47-20.58s8.84-20.32,7.59-28c-1.23-7.54-5.63-13.55-13.09-17.85a27.16,27.16,0,0,0-13.6-4"></path>
              <path d="M44,231.94c-6.82,0-14.68-2.54-23.36-7.56a46.83,46.83,0,0,1-12.3-9.91A34.41,34.41,0,0,1,1.51,202.8a29.48,29.48,0,0,1,.89-21,35,35,0,0,1,1.66-3.35l.24-.4c.32-.57.5-.88.86-1.43l1-1.54,3.07,1.66.29.16,6.34,3.66,3.37,2-1,1.74c-.28.46-.7,1.19-.92,1.58a18.15,18.15,0,0,0-2,13.9c1.2,4.78,5.24,9.18,12,13.09a41.44,41.44,0,0,0,10.12,4.42,21.74,21.74,0,0,0,5.4.76,12.6,12.6,0,0,0,2-.14,10.76,10.76,0,0,0,5.16-2.17,16,16,0,0,0,3.85-4.54,17.33,17.33,0,0,0,2.66-7.67,11.63,11.63,0,0,0-1.56-6.21,30.38,30.38,0,0,0-5.52-6.79c-2.57-2.46-5.63-5.31-9.09-8.45-7.29-6.41-12.34-12.88-15-19.25-2.79-6.69-2.16-13.61,1.86-20.58a23.56,23.56,0,0,1,7-7.58,24.41,24.41,0,0,1,9.88-4,27,27,0,0,1,4.73-.4,36.21,36.21,0,0,1,7.27.79,45.77,45.77,0,0,1,13.29,5.32,57.17,57.17,0,0,1,10.89,8.06,35,35,0,0,1,7.39,9.85,23.64,23.64,0,0,1,2.35,11.53A25.38,25.38,0,0,1,87.62,175a37.22,37.22,0,0,1-1.77,3.48c-.49.84-.67,1.15-.9,1.53l-1,1.69-3.49-2-5.9-3.41-3.79-2.16,1.12-1.77c.39-.62.81-1.35,1.06-1.77a17.15,17.15,0,0,0,2-5.36,10.57,10.57,0,0,0-.49-5.43A17,17,0,0,0,70.65,154a35,35,0,0,0-8.05-6c-4.68-2.7-8.83-4.07-12.35-4.07a13,13,0,0,0-1.54.09,11,11,0,0,0-8.48,5.9,11.65,11.65,0,0,0-1.87,6.61,13.48,13.48,0,0,0,2.29,6.25,39.42,39.42,0,0,0,6.11,7.09c2.69,2.54,5.88,5.39,9.47,8.44,7.37,6.48,12.14,12.91,14.19,19.14,2.12,6.45.92,13.65-3.56,21.42A25.48,25.48,0,0,1,48.74,231.5a25.75,25.75,0,0,1-4.78.44"></path>
              <path d="M50,288.31l68.61-118.8,13.1,7.57-3.72,6.44a37.66,37.66,0,0,1,10.45-1.33h.35c6.59.05,13.49,2.13,20.51,6.19a40,40,0,0,1,13.56,12.24,36.49,36.49,0,0,1,5.92,15.65,45.71,45.71,0,0,1-1.36,17.7,80.26,80.26,0,0,1-19.82,34.34,45.67,45.67,0,0,1-14.65,10,36.44,36.44,0,0,1-14,2.78c-.81,0-1.65,0-2.51-.08A39.94,39.94,0,0,1,109,275.42c-6.87-4-13.09-9.8-16.64-15.62a36.51,36.51,0,0,1-3.68-8.3L67.43,288.31ZM137.4,195a23.7,23.7,0,0,0-8.4,1.58c-7.29,2.76-14.18,9.68-20.47,20.58s-8.84,20.33-7.59,28S106.57,258.69,114,263a27.19,27.19,0,0,0,13.6,4,23.66,23.66,0,0,0,8.4-1.58c7.29-2.76,14.18-9.69,20.47-20.58s8.85-20.32,7.59-28c-1.23-7.54-5.63-13.55-13.08-17.86a27.31,27.31,0,0,0-13.61-4"></path>
            </g>
          </svg>